<?xml version="1.0" encoding="UTF-8"?>
<svg version="1.1" xmlns="http://www.w3.org/2000/svg" width="626" height="626">
<path d="M0 0 C42.85484148 -0.97814189 86.7078019 14.0124813 119.17578125 42.125 C119.95695312 42.79660156 120.738125 43.46820313 121.54296875 44.16015625 C140.1172453 60.50908018 156.66881117 79.45206456 167.17578125 102.125 C167.17578125 102.785 167.17578125 103.445 167.17578125 104.125 C166.15653564 104.39425293 166.15653564 104.39425293 165.11669922 104.66894531 C143.24949103 110.48426844 121.71110195 117.19369304 100.17578125 124.125 C103.21492973 124.125 105.6020685 123.95639197 108.53857422 123.42236328 C109.39401825 123.26865265 110.24946228 123.11494202 111.13082886 122.95657349 C112.05058502 122.78785736 112.97034119 122.61914124 113.91796875 122.4453125 C115.35790695 122.18607498 115.35790695 122.18607498 116.82693481 121.92160034 C119.90215401 121.36768274 122.97652972 120.80926136 126.05078125 120.25 C172.51739174 111.81162797 224.34158279 104.49075306 271.17578125 114.125 C272.4294751 114.37443359 272.4294751 114.37443359 273.70849609 114.62890625 C290.40993954 118.09433544 306.89043705 124.31540722 317.55078125 138.25 C322.45047035 146.12163167 323.04184037 155.48809252 320.9921875 164.3828125 C312.58990441 192.60483511 288.09816019 214.06798438 265.17578125 231.125 C264.48613281 231.6391748 263.79648437 232.15334961 263.0859375 232.68310547 C252.39821249 240.61078741 241.46477631 248.08086763 230.17578125 255.125 C229.5832959 255.49512207 228.99081055 255.86524414 228.38037109 256.24658203 C224.02334876 258.95013228 219.61115089 261.55238823 215.17578125 264.125 C214.34771973 264.60743164 213.5196582 265.08986328 212.66650391 265.58691406 C199.07288525 273.46550517 185.22992387 280.73477422 171.17578125 287.75 C170.00627426 288.33417191 170.00627426 288.33417191 168.81314087 288.93014526 C166.56066369 290.05313085 164.30628581 291.17217123 162.05078125 292.2890625 C161.38910446 292.61770798 160.72742767 292.94635345 160.04570007 293.28495789 C159.40542374 293.60036026 158.7651474 293.91576263 158.10546875 294.24072266 C157.50849371 294.53850868 156.91151867 294.83629471 156.29645348 295.14310455 C154.17578125 296.125 154.17578125 296.125 151.99883938 296.88819599 C145.42623255 299.30187226 143.09102892 302.31588643 140.18188477 308.53930664 C139.75772278 309.38719254 139.33356079 310.23507843 138.89654541 311.10865784 C137.5057227 313.90510479 136.15555481 316.71922051 134.8046875 319.53515625 C133.83512455 321.50299252 132.8629874 323.46956236 131.88841248 325.43492126 C129.32757325 330.61564077 126.80037482 335.81206489 124.28039551 341.01275635 C121.74270813 346.23708188 119.17664747 351.44740468 116.61132812 356.65820312 C113.71032576 362.55157248 110.81142146 368.44574768 107.93885803 374.3530426 C103.41193493 383.6504015 98.77888059 392.8699786 93.92818546 402.00277042 C89.5089945 410.33910745 85.29411247 418.77424917 81.09031677 427.22076416 C79.66057603 430.09333577 78.22811092 432.96453566 76.79504395 435.83544922 C73.75299374 441.93082251 70.71412849 448.02778023 67.67578125 454.125 C64.14705067 461.20629919 60.61691297 468.28689007 57.08335876 475.36578369 C55.69161678 478.15561422 54.30234184 480.9466631 52.91320801 483.73779297 C48.26504162 493.06046447 43.52433757 502.32414461 38.6491909 511.53022861 C35.28268798 517.89437789 32.04428466 524.31453855 28.87109375 530.77734375 C27.78289105 532.97607925 26.69434017 535.17464246 25.60546875 537.37304688 C23.93645323 540.7484698 22.27002498 544.12509131 20.609375 547.50463867 C18.97467036 550.82833266 17.32997431 554.14692139 15.68359375 557.46484375 C15.18876495 558.47828354 14.69393616 559.49172333 14.18411255 560.53587341 C13.71617279 561.47528275 13.24823303 562.41469208 12.76611328 563.38256836 C12.15849655 564.6156498 12.15849655 564.6156498 11.53860474 565.87364197 C9.6136614 569.05361112 7.65964894 571.7162064 3.9921875 572.7265625 C3.24839844 572.73429688 2.50460937 572.74203125 1.73828125 572.75 C0.99707031 572.78351562 0.25585938 572.81703125 -0.5078125 572.8515625 C-5.0722787 571.41987496 -7.70316796 566.57115532 -9.86962891 562.50415039 C-10.54250361 561.16446753 -11.20665962 559.82037972 -11.86328125 558.47265625 C-12.22964691 557.73663681 -12.59601257 557.00061737 -12.97348022 556.24229431 C-14.13963553 553.89436099 -15.29441671 551.54103413 -16.44921875 549.1875 C-17.19981801 547.67478127 -17.95111587 546.16240897 -18.703125 544.65039062 C-21.88750775 538.22939541 -25.04163838 531.79495845 -28.10644531 525.31591797 C-34.20972376 512.4167855 -40.5284277 499.63420194 -46.91796875 486.875 C-47.37542858 485.96149214 -47.83288841 485.04798428 -48.30421066 484.10679436 C-51.64138519 477.4447771 -54.982432 470.7847046 -58.32421875 464.125 C-65.51144728 449.80187813 -72.68937093 435.47430126 -79.82421875 421.125 C-80.33891724 420.09137329 -80.33891724 420.09137329 -80.86401367 419.03686523 C-82.83621208 415.07428469 -84.790432 411.10346351 -86.73046875 407.125 C-87.18119751 406.21782227 -87.63192627 405.31064453 -88.09631348 404.37597656 C-88.48411987 403.5712793 -88.87192627 402.76658203 -89.27148438 401.9375 C-89.60071899 401.26332031 -89.92995361 400.58914063 -90.26916504 399.89453125 C-90.82421875 398.125 -90.82421875 398.125 -89.82421875 395.125 C-87.27758789 394.00927734 -87.27758789 394.00927734 -83.859375 392.9609375 C-83.24375702 392.76792053 -82.62813904 392.57490356 -81.99386597 392.3760376 C-80.66058909 391.95917416 -79.32562344 391.54768282 -77.98922729 391.14093018 C-75.14296259 390.27327285 -72.30615271 389.37653227 -69.46858215 388.48092651 C-68.01713896 388.02292232 -66.56530149 387.56616582 -65.11308289 387.11062622 C-43.95253645 380.46779078 -23.29487995 372.63283611 -2.82421875 364.125 C-2.20826843 363.86912109 -1.59231812 363.61324219 -0.95770264 363.34960938 C14.65775065 356.84724306 30.01932255 349.88318722 45.23828125 342.5 C45.95577545 342.15207397 46.67326965 341.80414795 47.4125061 341.44567871 C56.45591219 337.08752516 56.45591219 337.08752516 65.17578125 332.125 C64.01272461 332.51655273 62.84966797 332.90810547 61.65136719 333.31152344 C20.39960817 347.15745276 -21.02920458 358.97059771 -63.67419434 367.68548584 C-65.65355157 368.09011173 -67.63199687 368.49919188 -69.61035156 368.90869141 C-126.4410487 380.54745041 -209.66229845 395.87714319 -261.625 361.94921875 C-267.74133802 357.35011187 -271.84549789 350.41645085 -273.82421875 343.125 C-275.76796601 325.44713015 -268.72444021 311.91299325 -258.13671875 298.25 C-235.70292807 270.95627788 -205.6614355 248.29408802 -174.82421875 231.125 C-174.16421875 231.125 -173.50421875 231.125 -172.82421875 231.125 C-173.08976562 230.01125 -173.3553125 228.8975 -173.62890625 227.75 C-184.88865646 179.61935695 -178.45879127 129.71161528 -152.82421875 87.125 C-141.27307039 68.77787924 -126.88128153 52.48885645 -109.82421875 39.125 C-109.28297363 38.69670898 -108.74172852 38.26841797 -108.18408203 37.82714844 C-76.93750851 13.28588673 -39.30875679 1.73980666 0 0 Z M177.17578125 127.125 C178.15256299 132.57080321 179.14390402 138.01247852 180.2109375 143.44140625 C180.38044922 144.30830078 180.54996094 145.17519531 180.72460938 146.06835938 C181.06794022 147.81895503 181.41431093 149.56895715 181.76367188 151.31835938 C185.60982144 171.10908302 185.62575269 192.26123688 182.17578125 212.125 C182.05750977 212.83495117 181.93923828 213.54490234 181.81738281 214.27636719 C179.66859538 226.68247072 175.40965628 237.71627143 170.17578125 249.125 C169.5585535 250.48696093 168.94136382 251.84893911 168.32421875 253.2109375 C166.95998007 256.19157272 165.57971662 259.16290908 164.17578125 262.125 C168.60817872 260.55166807 172.46849602 258.24956844 176.42578125 255.75 C177.12251953 255.31083252 177.81925781 254.87166504 178.53710938 254.41918945 C201.04042472 240.08815719 223.99824339 223.61029586 240.17578125 202.125 C240.80097656 201.31546875 241.42617188 200.5059375 242.0703125 199.671875 C250.55680589 188.20863775 255.45643907 176.46836758 254.17578125 162.125 C251.51598577 151.87036684 243.99395385 144.98085494 235.16796875 139.71875 C217.22358365 130.1609052 197.11995583 128.44869269 177.17578125 127.125 Z M-173.38671875 248.1875 C-176.80114982 251.36213666 -180.21835137 254.47962147 -183.82421875 257.4375 C-196.97172147 268.94156488 -209.77302237 285.62268175 -212.26953125 303.2734375 C-212.78851868 312.77316398 -210.00984572 320.12621441 -203.9140625 327.40625 C-181.81824681 348.88255684 -144.42673977 348.42294293 -115.82421875 348.125 C-117.08548909 344.10569278 -118.56580256 340.41235677 -120.4765625 336.66015625 C-121.00701172 335.61021484 -121.53746094 334.56027344 -122.08398438 333.47851562 C-122.63763672 332.39248047 -123.19128906 331.30644531 -123.76171875 330.1875 C-127.93737326 321.97624399 -131.98650578 313.71830835 -135.94140625 305.3984375 C-142.12403293 292.407211 -148.55779208 279.54554146 -155.01171875 266.6875 C-156.16620636 264.38355911 -157.3205041 262.07952306 -158.47460938 259.77539062 C-161.25563645 254.22416751 -164.0389594 248.67410073 -166.82421875 243.125 C-169.14792182 243.125 -171.68407054 246.59731511 -173.38671875 248.1875 Z " fill="#290067" transform="translate(288.82421875,26.875)"/>
<path d="M0 0 C1.96092316 0.82874871 3.57481134 1.74391479 5.31860352 2.96386719 C5.95660889 3.40617676 6.59461426 3.84848633 7.25195312 4.30419922 C7.92621338 4.78099121 8.60047363 5.2577832 9.29516602 5.74902344 C9.99327393 6.23612793 10.69138184 6.72323242 11.41064453 7.22509766 C13.58575459 8.74656933 15.75385141 10.27755963 17.92016602 11.81152344 C18.61255371 12.30056152 19.30494141 12.78959961 20.01831055 13.29345703 C31.57264446 21.46400189 31.57264446 21.46400189 32.92016602 22.81152344 C33.01619624 24.43108683 33.04204456 26.05485426 33.04042053 27.67726135 C33.04248253 29.25697723 33.04248253 29.25697723 33.04458618 30.86860657 C33.03919327 32.61647713 33.03919327 32.61647713 33.03369141 34.3996582 C33.03383743 35.61900055 33.03398346 36.8383429 33.03413391 38.09463501 C33.03355494 41.44779855 33.0285257 44.80090118 33.02155995 48.15405393 C33.01532585 51.65477906 33.01472257 55.15550492 33.01353455 58.65623474 C33.0104214 65.28961999 33.00220823 71.92298884 32.99218506 78.55636686 C32.98102341 86.10642551 32.97551334 93.65648492 32.97048962 101.20654976 C32.96002561 116.7415505 32.94242649 132.27653486 32.92016602 147.81152344 C31.19847894 148.60579681 29.47548043 149.39722778 27.75195312 150.1875 C26.79260361 150.62854065 25.83325409 151.0695813 24.84483337 151.52398682 C20.47238684 153.44888437 16.00216416 155.02164859 11.48266602 156.56152344 C10.6119043 156.86445313 9.74114258 157.16738281 8.84399414 157.47949219 C5.20838201 158.73507581 1.65713168 159.87728202 -2.07983398 160.81152344 C-2.07983398 112.63152344 -2.07983398 64.45152344 -2.07983398 14.81152344 C-14.52500095 21.91116288 -14.52500095 21.91116288 -25.95678616 33.58195972 C-25.95816885 35.10153546 -25.95816885 35.10153546 -25.95957947 36.65180969 C-25.97761627 37.81983627 -25.99565308 38.98786285 -26.01423645 40.19128418 C-25.99842026 41.46370972 -25.98260406 42.73613525 -25.96630859 44.04711914 C-25.97420078 45.40746592 -25.98516411 46.76779784 -25.9989624 48.12809753 C-26.02766819 51.8140581 -26.0134667 55.4987476 -25.99152064 59.18470788 C-25.97588089 63.03918693 -25.9997546 66.89341706 -26.01942444 70.74784851 C-26.05065821 78.04351825 -26.04639176 85.33871749 -26.02934986 92.63441676 C-26.01167529 100.94160521 -26.03360814 109.24854165 -26.05885684 117.55569327 C-26.10989928 134.64107156 -26.11123884 151.72610188 -26.07983398 168.81152344 C-30.43914684 170.51091658 -34.46610658 171.97927489 -39.07983398 172.81152344 C-39.4307378 153.68806003 -39.69498647 134.56525244 -39.85701656 115.43923378 C-39.9342623 106.55783906 -40.03949943 97.67844801 -40.21142578 88.79833984 C-40.3612655 81.05530799 -40.45778068 73.31372714 -40.49116141 65.56928575 C-40.51066863 61.47030245 -40.55624841 57.3754686 -40.66578484 53.27782059 C-41.30619423 28.37148343 -41.30619423 28.37148343 -37.63485146 22.50098991 C-34.24474128 19.03428766 -30.48704928 17.15433627 -25.95791626 15.5581913 C-22.91492813 14.34839263 -20.55542788 12.48047858 -17.94311523 10.51855469 C-17.01692383 9.86951172 -16.09073242 9.22046875 -15.13647461 8.55175781 C-13.25804629 7.23217863 -11.38592133 5.90359344 -9.51928711 4.56738281 C-8.60727539 3.93251953 -7.69526367 3.29765625 -6.75561523 2.64355469 C-5.54772339 1.7885437 -5.54772339 1.7885437 -4.31542969 0.91625977 C-2.07983398 -0.18847656 -2.07983398 -0.18847656 0 0 Z " fill="#F9AE35" transform="translate(345.079833984375,172.1884765625)"/>
<path d="M0 0 C4.29667777 1.47474098 7.69546904 3.75850541 11.3125 6.4375 C12.54065921 7.33211387 13.76987092 8.2252842 15 9.1171875 C15.64453125 9.58479492 16.2890625 10.05240234 16.953125 10.53417969 C21.22985535 13.59685729 25.58629079 16.54529421 29.93286133 19.50756836 C34.90252786 22.90252786 34.90252786 22.90252786 36 24 C36.0953919 25.37876025 36.12188622 26.76236916 36.12025452 28.14442444 C36.12231651 29.48433693 36.12231651 29.48433693 36.12442017 30.85131836 C36.11902725 32.33269287 36.11902725 32.33269287 36.11352539 33.84399414 C36.11367142 34.87801865 36.11381744 35.91204315 36.1139679 36.97740173 C36.11326827 40.41334086 36.10547358 43.84922653 36.09765625 47.28515625 C36.09579225 49.66027293 36.09436826 52.03539 36.09336853 54.4105072 C36.08954197 60.67576144 36.0797105 66.94099267 36.06866455 73.20623779 C36.0584534 79.5938689 36.05387155 85.98150371 36.04882812 92.36914062 C36.03808836 104.91277026 36.02120127 117.45638391 36 130 C33.16467308 130.79780207 30.3286523 131.59298066 27.4921875 132.38671875 C26.30338989 132.72165344 26.30338989 132.72165344 25.09057617 133.06335449 C7.41638978 138 7.41638978 138 0 138 C-0.33 97.74 -0.66 57.48 -1 16 C-11.57298154 23.39971064 -11.57298154 23.39971064 -22 31 C-22.66 31 -23.32 31 -24 31 C-24 67.96 -24 104.92 -24 143 C-27.26881973 143.81720493 -29.46999069 144.11073543 -32.75 144.0625 C-33.54921875 144.05347656 -34.3484375 144.04445313 -35.171875 144.03515625 C-36.07679688 144.01775391 -36.07679688 144.01775391 -37 144 C-37.39831794 128.82323297 -37.69747223 113.64670723 -37.88080692 98.46587753 C-37.96822725 91.41557171 -38.08722518 84.36852479 -38.2824707 77.3203125 C-38.47098243 70.51189908 -38.56895251 63.7068634 -38.61291313 56.89600372 C-38.64421727 54.30408838 -38.70535801 51.7123489 -38.79741096 49.12187958 C-39.47164765 29.35361465 -39.47164765 29.35361465 -35.34344101 23.75232506 C-31.38419987 19.96740419 -26.94793154 17.37388569 -22.03462029 15.01222801 C-19.2316358 13.61773714 -16.74922383 11.85367703 -14.21875 10.01953125 C-12.6467849 8.94912206 -11.0739166 7.88003766 -9.5 6.8125 C-7.88475997 5.71581034 -6.27013956 4.61820731 -4.65625 3.51953125 C-3.97369141 3.05651611 -3.29113281 2.59350098 -2.58789062 2.11645508 C-1.03594774 1.09319283 -1.03594774 1.09319283 0 0 Z " fill="#F8AE35" transform="translate(253,220)"/>
<path d="M0 0 C2.90458071 1.35590693 5.36316309 2.9412427 7.98461914 4.78515625 C8.97461914 5.47802734 9.96461914 6.17089844 10.98461914 6.88476562 C12.00813477 7.60857422 13.03165039 8.33238281 14.08618164 9.078125 C15.10196289 9.79033203 16.11774414 10.50253906 17.16430664 11.23632812 C20.01803098 13.23949437 22.86717654 15.24868547 25.71118164 17.265625 C26.32378342 17.58316238 26.93638519 17.90069977 27.56755066 18.2278595 C30.60719983 19.95077232 32.37199322 21.18001294 33.43884277 24.59458923 C33.82402868 27.57623016 33.96947892 30.48222441 34.02758789 33.48828125 C34.07676613 35.13297646 34.07676613 35.13297646 34.12693787 36.81089783 C34.17985488 39.13130431 34.21307829 41.45223171 34.22802734 43.77319336 C34.27332109 47.30005018 34.45146164 50.80417235 34.63500977 54.32617188 C35.05256468 70.27523539 35.05256468 70.27523539 30.97650146 75.48114014 C26.75795147 79.24206102 22.04598641 81.78101347 16.94332886 84.14596558 C14.69348162 85.27450345 12.77185274 86.56154204 10.75244141 88.05883789 C7.71118164 90.265625 7.71118164 90.265625 5.71118164 90.265625 C5.71118164 106.105625 5.71118164 121.945625 5.71118164 138.265625 C-0.02881016 135.3956291 -0.02881016 135.3956291 -2.28881836 133.265625 C-2.79662704 131.03801441 -2.79662704 131.03801441 -2.80780029 128.38716125 C-2.8217131 127.38175293 -2.83562592 126.3763446 -2.84996033 125.34046936 C-2.84492996 124.2385173 -2.8398996 123.13656525 -2.8347168 122.0012207 C-2.84505447 120.84010773 -2.85539215 119.67899475 -2.86604309 118.48269653 C-2.89559829 114.63546033 -2.89697301 110.78874732 -2.89819336 106.94140625 C-2.91316643 104.2776568 -2.92969604 101.61396282 -2.94830322 98.95024109 C-2.98888974 92.64984276 -3.00921005 86.349548 -3.02227712 80.04903907 C-3.03813829 72.87609886 -3.07655006 65.70333512 -3.1168704 58.53049719 C-3.19930541 43.77561076 -3.25337497 29.02070091 -3.28881836 14.265625 C-6.20592274 16.36918536 -9.12242434 18.47357993 -12.03881836 20.578125 C-12.86381836 21.17302734 -13.68881836 21.76792969 -14.53881836 22.38085938 C-15.73764648 23.24614258 -15.73764648 23.24614258 -16.96069336 24.12890625 C-18.0604248 24.92228394 -18.0604248 24.92228394 -19.18237305 25.73168945 C-19.8775 26.23788818 -20.57262695 26.74408691 -21.28881836 27.265625 C-22.02738194 27.75132367 -22.76594551 28.23702234 -23.5268898 28.73743916 C-25.6895818 30.27677405 -25.6895818 30.27677405 -25.80780029 33.85331726 C-25.83716603 35.37159923 -25.84445981 36.89040087 -25.8347168 38.40893555 C-25.84505447 39.23842712 -25.85539215 40.0679187 -25.86604309 40.92254639 C-25.89555563 43.66600835 -25.89697202 46.40873527 -25.89819336 49.15234375 C-25.91316933 51.05379145 -25.92989524 52.95522611 -25.94830322 54.85664368 C-25.99205453 59.86256495 -26.01199304 64.86831075 -26.02703857 69.87438965 C-26.04658166 74.98212087 -26.08855476 80.0896618 -26.12866211 85.19726562 C-26.20404846 95.2199935 -26.25428887 105.24267895 -26.28881836 115.265625 C-30.27468581 113.77925637 -32.99273235 111.95453727 -36.28881836 109.265625 C-37.27881836 108.935625 -38.26881836 108.605625 -39.28881836 108.265625 C-39.5673321 97.45221856 -39.78030763 86.63966993 -39.91056442 75.8234024 C-39.9730969 70.80024718 -40.0578383 65.77955174 -40.1940918 60.7578125 C-40.32486158 55.90760833 -40.39630132 51.05976287 -40.42734528 46.20793152 C-40.44945376 44.36088413 -40.49263433 42.51396063 -40.55757904 40.66792297 C-41.04619787 26.19838433 -41.04619787 26.19838433 -36.69059753 21.40811157 C-33.63271951 19.35184998 -30.63802951 17.78735606 -27.28881836 16.265625 C-25.81520204 15.30610389 -24.35723751 14.32093898 -22.93334961 13.2890625 C-21.97682495 12.62813599 -21.97682495 12.62813599 -21.00097656 11.95385742 C-20.37408936 11.52049072 -19.74720215 11.08712402 -19.10131836 10.640625 C-18.42351318 10.17696533 -17.74570801 9.71330566 -17.04736328 9.2355957 C-14.14573285 7.25012339 -11.27126682 5.25263011 -8.44506836 3.16015625 C-7.67163086 2.59683594 -6.89819336 2.03351563 -6.10131836 1.453125 C-5.46838867 0.97230469 -4.83545898 0.49148437 -4.18334961 -0.00390625 C-2.28881836 -0.734375 -2.28881836 -0.734375 0 0 Z " fill="#F9AF35" transform="translate(292.288818359375,102.734375)"/>
</svg>
